<?xml version="1.0" standalone="no"?>
<!DOCTYPE svg PUBLIC "-//W3C//DTD SVG 20010904//EN"
 "http://www.w3.org/TR/2001/REC-SVG-20010904/DTD/svg10.dtd">
<svg version="1.0" xmlns="http://www.w3.org/2000/svg"
 width="1024.000000pt" height="1024.000000pt" viewBox="0 0 1024.000000 1024.000000"
 preserveAspectRatio="xMidYMid meet">
<metadata>
Created by potrace 1.14, written by Peter Selinger 2001-2017
</metadata>
<g transform="translate(0.000000,1024.000000) scale(0.100000,-0.100000)"
fill="#000000" stroke="none">
<path d="M5426 8157 c-84 -156 -123 -230 -322 -615 -33 -63 -85 -164 -117
-225 -32 -62 -69 -133 -83 -159 -13 -27 -23 -50 -22 -52 2 -2 -4 -12 -13 -22
-9 -11 -29 -46 -46 -79 -17 -33 -64 -125 -106 -205 -41 -80 -99 -192 -128
-250 -30 -58 -56 -107 -59 -110 -3 -3 -43 -79 -89 -170 -46 -91 -105 -205
-131 -255 -26 -49 -65 -124 -85 -165 -21 -41 -43 -78 -48 -81 -5 -3 -9 -10 -9
-15 -1 -10 -31 -77 -38 -84 -6 -6 -114 -225 -276 -557 -59 -123 -111 -223
-116 -223 -4 0 -8 -6 -8 -13 0 -43 -180 -349 -278 -472 -4 -5 -21 -28 -37 -50
-29 -38 -58 -74 -80 -99 -5 -6 -25 -29 -44 -51 -124 -147 -337 -365 -550 -565
-156 -146 -260 -249 -305 -303 -17 -21 -41 -50 -54 -64 -21 -23 -75 -92 -130
-167 -68 -92 -131 -241 -147 -351 -12 -75 -13 -213 -3 -264 5 -25 11 -57 14
-70 3 -13 19 -53 36 -88 66 -137 214 -241 413 -289 146 -36 308 -4 440 86 69
47 179 159 222 226 20 30 73 133 74 141 0 5 7 18 15 31 8 12 12 22 9 22 -2 0
0 11 5 25 10 27 55 193 64 238 6 29 13 59 21 94 3 13 7 33 10 45 2 13 9 41 14
63 12 47 58 257 65 300 8 40 13 69 27 135 7 30 13 64 15 75 2 11 15 79 29 150
15 72 29 141 31 155 3 14 10 43 16 65 5 22 12 48 14 57 52 229 149 463 291
698 25 41 58 100 75 130 16 30 45 82 64 115 19 33 42 74 50 90 8 17 19 37 24
45 25 40 183 328 208 380 9 19 19 37 22 40 3 3 22 37 42 75 20 39 50 95 67
125 16 30 44 81 60 113 17 32 47 87 66 123 112 206 273 509 314 589 14 28 28
52 31 55 3 3 25 43 49 90 58 112 118 227 179 342 27 51 69 131 93 178 24 47
46 87 49 90 3 3 22 39 43 80 57 114 113 219 119 225 3 3 6 -341 7 -765 2 -737
1 -770 -16 -771 -38 -1 -162 -8 -248 -13 -49 -3 -142 -9 -205 -12 -109 -6
-169 -10 -180 -13 -4 -1 -5 -48 -1 -119 1 -17 18 -18 317 -18 174 1 321 -2
326 -5 10 -6 5 -1981 -5 -2284 -2 -55 -2 -105 0 -110 3 -9 45 -12 63 -5 3 1 9
2 15 0 5 -1 60 -1 122 0 62 0 121 1 131 1 9 0 136 0 282 0 146 0 272 0 280 0
119 -3 366 4 445 13 77 9 152 19 170 23 11 2 43 8 70 13 28 5 68 14 90 20 22
6 57 16 79 21 51 13 196 69 222 86 11 7 24 10 27 6 4 -3 7 -1 7 5 0 7 6 12 14
12 17 0 89 40 94 52 2 4 8 8 14 8 21 0 147 98 224 175 44 44 98 107 120 140
39 59 97 155 100 165 0 3 5 16 11 30 6 14 17 41 26 61 41 99 71 287 70 439 0
98 -15 265 -23 265 -1 0 -3 14 -5 30 -3 17 -11 49 -19 72 -8 23 -12 44 -9 47
4 3 1 6 -5 6 -7 0 -12 6 -12 14 0 65 -141 289 -249 395 -72 71 -206 172 -248
188 -10 3 -20 9 -23 13 -24 30 -397 163 -455 161 -2 0 -18 4 -35 9 -17 5 -53
12 -82 15 -28 4 -60 9 -72 11 -12 2 -41 7 -66 10 -58 7 -61 11 -14 19 22 4 57
11 79 17 22 6 40 9 40 7 0 -1 10 3 23 10 13 7 31 14 41 16 31 6 152 56 234 96
345 171 580 468 638 808 14 79 19 288 8 345 -4 23 -10 59 -13 81 -10 72 -45
178 -85 260 -135 273 -390 458 -766 554 -44 11 -93 23 -110 25 -229 38 -326
43 -906 44 l-565 1 -28 -52z m1066 -114 c4 -2 47 -5 95 -8 78 -3 199 -17 265
-31 13 -2 35 -6 50 -9 15 -3 39 -10 53 -15 14 -5 29 -9 33 -8 11 3 96 -24 107
-34 5 -4 15 -8 23 -8 8 0 51 -17 97 -39 272 -127 430 -325 480 -601 14 -81 17
-290 4 -349 -4 -20 -10 -52 -13 -71 -12 -78 -95 -290 -118 -298 -4 -2 -8 -8
-8 -14 0 -20 -64 -101 -142 -179 -158 -158 -371 -269 -643 -335 -134 -32 -301
-52 -462 -57 -51 -1 -94 -6 -96 -12 -3 -9 -1 -111 2 -125 0 -3 49 -6 109 -6
111 -1 337 -12 371 -19 11 -2 46 -6 78 -10 68 -7 91 -10 193 -32 41 -9 82 -17
90 -17 34 -4 220 -71 298 -107 124 -57 217 -122 312 -218 185 -187 271 -412
273 -716 1 -175 -9 -268 -45 -390 -38 -132 -96 -249 -172 -350 -42 -55 -163
-172 -211 -204 -22 -14 -42 -28 -45 -31 -29 -30 -267 -136 -315 -141 -5 -1
-17 -5 -26 -10 -16 -8 -27 -11 -114 -29 -79 -16 -108 -22 -135 -25 -14 -1 -50
-6 -80 -10 -72 -10 -1070 -13 -1076 -3 -16 25 -20 4139 -5 4490 l1 27 383 -1
c210 0 385 -2 389 -5z m-1007 -380 c-2 -51 -11 -74 -71 -183 -38 -69 -76 -139
-84 -155 -8 -17 -17 -32 -20 -35 -3 -3 -38 -70 -79 -150 -41 -80 -80 -152 -87
-161 -8 -8 -14 -19 -14 -22 0 -4 -31 -65 -69 -135 -37 -70 -92 -172 -121 -227
-29 -55 -60 -113 -70 -130 -9 -16 -47 -86 -83 -155 -36 -69 -82 -154 -101
-189 -20 -35 -36 -64 -36 -66 0 -2 -44 -86 -98 -187 -55 -101 -120 -222 -145
-270 -25 -47 -55 -101 -65 -120 -10 -18 -43 -80 -73 -138 -29 -58 -56 -107
-59 -110 -3 -3 -24 -41 -47 -85 -37 -71 -66 -127 -109 -205 -8 -14 -14 -31
-14 -37 0 -7 -3 -13 -7 -13 -5 0 -13 -10 -19 -23 -6 -12 -39 -76 -74 -142 -35
-66 -71 -134 -79 -152 -18 -37 -31 -41 -55 -14 -19 21 -16 28 97 231 24 45 68
126 155 290 24 47 53 99 62 115 10 17 35 64 57 105 117 219 251 469 285 528
23 41 81 150 153 287 27 50 55 98 63 108 8 9 12 17 7 17 -4 0 -3 6 3 13 6 6
29 48 52 92 23 44 50 94 60 110 10 17 39 71 65 120 61 114 110 206 145 270 15
28 80 149 145 270 65 121 130 243 145 270 124 228 183 335 185 335 2 0 2 -26
0 -57z m-1836 -3159 c-12 -22 -34 -61 -49 -89 -15 -27 -45 -80 -68 -118 -23
-37 -42 -70 -42 -73 0 -3 -13 -24 -28 -47 -25 -36 -57 -90 -155 -260 -57 -97
-123 -202 -129 -205 -5 -2 -8 -8 -8 -12 0 -5 -64 -114 -142 -242 -77 -128
-146 -243 -152 -255 -6 -13 -14 -23 -18 -23 -5 0 -8 -4 -8 -10 0 -9 -88 -160
-99 -170 -3 -3 -7 -12 -9 -20 -2 -8 -9 -22 -16 -30 -7 -8 -26 -37 -42 -65 -16
-27 -33 -58 -39 -67 -112 -187 -194 -336 -235 -433 -77 -181 -79 -185 -93
-179 -14 5 -15 14 -17 127 -4 169 33 315 128 505 20 39 40 72 44 72 4 0 8 5 8
11 0 9 76 127 89 139 3 3 12 17 20 33 8 15 18 27 23 27 4 0 8 6 8 14 0 8 3 16
8 18 6 3 105 128 142 182 8 12 25 32 36 46 12 14 52 63 89 109 37 46 71 89 76
95 28 35 150 189 182 230 12 16 32 39 44 51 12 13 19 26 16 29 -3 3 2 8 11 12
9 3 16 10 16 15 0 6 5 15 10 22 54 64 320 448 320 462 0 3 8 18 18 33 11 15
31 47 46 70 34 53 46 50 15 -4z m104 -16 c-3 -13 -10 -28 -15 -35 -5 -7 -7
-17 -3 -23 3 -5 1 -10 -4 -10 -6 0 -11 -5 -11 -11 0 -5 4 -7 10 -4 6 4 7 -1 3
-11 -5 -13 -8 -14 -11 -5 -4 11 -43 -55 -47 -79 0 -3 -11 -27 -23 -54 -12 -27
-22 -53 -22 -58 0 -5 -7 -25 -16 -46 -10 -20 -18 -41 -19 -47 -2 -5 -12 -34
-24 -62 -11 -29 -18 -53 -15 -53 4 0 1 -6 -5 -14 -7 -8 -14 -23 -16 -35 -2
-11 -22 -78 -44 -149 -23 -71 -41 -135 -41 -144 0 -8 -3 -18 -7 -22 -4 -3 -8
-16 -10 -28 -2 -12 -10 -42 -19 -67 -9 -25 -18 -57 -20 -71 -3 -14 -10 -43
-16 -65 -7 -22 -12 -43 -14 -47 -1 -5 -2 -9 -4 -10 -1 -2 -3 -10 -5 -18 -5
-24 -61 -236 -95 -359 -17 -62 -33 -120 -35 -130 -12 -54 -94 -270 -133 -351
-26 -52 -74 -133 -89 -148 -7 -7 -13 -18 -13 -23 0 -4 -44 -53 -97 -107 -75
-75 -108 -101 -140 -110 -46 -14 -130 -19 -140 -8 -8 7 26 46 41 46 12 0 106
89 166 156 114 127 227 317 299 504 18 47 39 99 47 117 8 17 14 38 14 46 0 9
4 18 9 21 4 3 12 20 16 38 4 18 9 35 9 38 71 213 89 268 91 280 7 37 188 566
196 574 5 6 9 16 9 23 0 17 73 208 111 291 16 35 29 65 29 67 0 3 13 33 29 67
15 35 38 84 50 111 23 51 32 60 24 25z m-183 -225 c-160 -321 -280 -574 -280
-592 0 -6 -4 -11 -10 -11 -5 0 -10 -6 -10 -14 0 -8 -13 -41 -29 -73 -27 -54
-45 -92 -116 -248 -59 -128 -298 -610 -306 -615 -4 -3 -11 -18 -14 -33 -4 -15
-12 -27 -18 -27 -6 0 -7 -3 -4 -6 3 -4 -3 -18 -13 -32 -11 -13 -20 -31 -20
-38 0 -8 -4 -14 -9 -14 -5 0 -12 -13 -16 -30 -4 -17 -11 -30 -16 -30 -5 0 -9
-4 -9 -9 0 -12 -82 -145 -92 -149 -5 -2 -8 -8 -8 -13 0 -6 -4 -15 -10 -22 -13
-16 -70 -88 -99 -127 -36 -46 -57 -55 -88 -35 -26 17 -27 28 -9 108 11 47 108
257 119 257 6 0 7 3 4 7 -4 3 -3 11 2 17 5 6 33 56 62 111 61 117 51 99 202
350 64 108 117 200 117 205 0 6 5 10 10 10 6 0 10 7 10 15 0 8 5 15 10 15 6 0
10 5 10 11 0 6 8 23 19 37 10 15 29 47 43 72 14 25 57 98 97 162 39 65 71 122
71 127 0 5 3 11 8 13 10 4 162 256 162 268 0 6 5 10 10 10 6 0 10 4 10 9 0 9
60 112 111 191 16 25 32 52 36 60 3 8 26 47 50 87 24 39 43 74 43 78 0 8 69
115 74 115 3 0 -44 -98 -104 -217z m144 75 c-3 -12 -13 -37 -22 -57 -9 -20
-16 -40 -16 -46 -1 -5 -20 -66 -43 -135 -35 -102 -70 -232 -88 -320 -2 -8 -11
-51 -20 -95 -9 -44 -18 -91 -20 -105 -2 -14 -17 -104 -34 -200 -17 -96 -33
-193 -36 -215 -3 -22 -8 -51 -10 -65 -6 -34 -16 -89 -20 -120 -6 -36 -26 -143
-30 -160 0 -3 -4 -23 -9 -45 -25 -126 -91 -287 -158 -387 -84 -125 -226 -234
-358 -273 -19 -6 -8 8 41 56 68 66 149 168 149 187 0 5 4 12 9 14 8 3 67 114
94 178 8 19 22 53 31 75 10 23 18 47 20 55 2 8 6 22 9 30 11 29 42 125 43 135
1 6 3 12 4 15 1 3 3 12 5 20 2 8 25 87 50 175 25 88 47 167 49 175 2 8 6 22 9
30 6 16 27 87 47 160 7 25 18 61 25 80 7 19 13 37 13 40 0 3 5 25 12 50 7 25
14 52 16 60 2 8 26 94 54 190 28 96 53 186 56 200 3 14 9 27 15 28 5 2 9 10 9
19 0 8 6 29 14 46 7 18 23 60 36 95 29 85 49 132 56 132 3 0 2 -10 -2 -22z
m-210 0 c-14 -25 -88 -133 -98 -145 -6 -7 -36 -49 -66 -93 -69 -101 -301 -410
-387 -515 -34 -41 -118 -144 -130 -160 -9 -11 -28 -34 -42 -51 -14 -16 -37
-45 -51 -63 -14 -19 -32 -42 -41 -52 -8 -10 -24 -30 -35 -44 -10 -15 -24 -32
-30 -39 -23 -25 -143 -205 -183 -274 -94 -168 -154 -340 -172 -502 -7 -52 -12
-101 -12 -108 -1 -21 -43 25 -64 71 -38 79 -42 95 -39 173 3 87 10 124 30 169
52 116 124 252 157 297 102 140 125 166 351 399 97 101 177 187 268 289 57 64
110 124 187 207 11 13 36 42 55 65 18 23 40 49 49 57 26 26 171 211 213 274
22 31 41 57 43 57 2 0 1 -6 -3 -12z m90 -108 c-30 -66 -54 -124 -54 -130 0 -6
-9 -29 -20 -50 -11 -22 -18 -40 -16 -40 3 0 -8 -31 -24 -69 -15 -38 -26 -72
-22 -75 3 -3 1 -6 -4 -6 -5 0 -10 -9 -11 -20 -1 -10 -8 -34 -16 -52 -8 -18
-27 -71 -41 -118 -15 -47 -30 -92 -33 -100 -3 -8 -7 -19 -8 -25 -2 -5 -21 -66
-44 -134 -22 -69 -41 -128 -41 -132 0 -4 -5 -20 -12 -36 -6 -15 -12 -32 -14
-38 -10 -36 -69 -208 -95 -277 -17 -46 -44 -117 -59 -158 -49 -130 -148 -320
-171 -328 -5 -2 -9 -8 -9 -13 0 -29 -245 -269 -275 -269 -3 0 -21 -10 -38 -23
-53 -39 -83 -48 -98 -31 -10 12 -7 20 13 42 25 27 31 36 93 130 124 186 292
499 425 787 18 39 47 102 65 140 83 178 95 205 95 215 0 5 5 10 10 10 6 0 10
7 10 15 0 8 25 66 55 130 30 63 55 117 55 120 0 2 28 62 61 132 34 70 72 151
85 178 46 100 181 345 189 345 2 0 -21 -54 -51 -120z m-183 40 c-29 -40 -45
-60 -173 -215 -77 -93 -106 -127 -148 -174 -100 -112 -169 -190 -195 -217 -97
-102 -267 -284 -295 -314 -17 -19 -60 -64 -94 -100 -98 -103 -194 -228 -232
-301 -9 -19 -20 -36 -23 -39 -9 -7 -78 -168 -86 -202 -10 -38 -25 -26 -20 15
7 51 25 129 42 172 29 77 76 175 85 175 4 0 8 5 8 10 0 15 74 115 129 174 57
62 99 103 230 224 111 105 501 491 566 563 39 43 126 144 158 184 72 90 101
117 48 45z"/>
</g>
</svg>
