<svg xmlns="http://www.w3.org/2000/svg" width="16.967" height="16.967" viewBox="0 0 16.967 16.967"><defs><style>.a{fill:#fff;}</style></defs><path class="a" d="M8.484,0c-2.3,0-2.592.011-3.5.051A6.256,6.256,0,0,0,2.927.445a4.155,4.155,0,0,0-1.5.978,4.139,4.139,0,0,0-.978,1.5A6.237,6.237,0,0,0,.051,4.986C.008,5.891,0,6.179,0,8.484s.011,2.592.051,3.5A6.259,6.259,0,0,0,.445,14.04a4.16,4.16,0,0,0,.978,1.5,4.149,4.149,0,0,0,1.5.978,6.264,6.264,0,0,0,2.059.394c.9.042,1.193.051,3.5.051s2.592-.011,3.5-.051a6.278,6.278,0,0,0,2.059-.394,4.336,4.336,0,0,0,2.481-2.481,6.259,6.259,0,0,0,.394-2.059c.042-.9.051-1.193.051-3.5s-.011-2.592-.051-3.5a6.274,6.274,0,0,0-.394-2.059,4.164,4.164,0,0,0-.978-1.5,4.133,4.133,0,0,0-1.5-.978A6.241,6.241,0,0,0,11.981.051C11.076.008,10.788,0,8.484,0Zm0,1.527c2.264,0,2.534.011,3.429.05a4.674,4.674,0,0,1,1.574.293A2.792,2.792,0,0,1,15.1,3.48a4.684,4.684,0,0,1,.292,1.574c.04.9.049,1.164.049,3.429s-.011,2.534-.052,3.429a4.774,4.774,0,0,1-.3,1.574,2.694,2.694,0,0,1-.636.977,2.647,2.647,0,0,1-.976.633,4.718,4.718,0,0,1-1.58.292c-.9.04-1.166.049-3.435.049s-2.535-.011-3.435-.052a4.81,4.81,0,0,1-1.581-.3,2.627,2.627,0,0,1-.975-.636,2.576,2.576,0,0,1-.636-.976,4.815,4.815,0,0,1-.3-1.58c-.032-.891-.043-1.166-.043-3.425s.011-2.535.043-3.437a4.809,4.809,0,0,1,.3-1.579,2.515,2.515,0,0,1,.636-.976,2.509,2.509,0,0,1,.975-.635,4.7,4.7,0,0,1,1.57-.3c.9-.032,1.167-.042,3.435-.042l.032.021Zm0,2.6A4.356,4.356,0,1,0,12.84,8.484,4.356,4.356,0,0,0,8.484,4.127Zm0,7.184a2.828,2.828,0,1,1,2.828-2.828A2.827,2.827,0,0,1,8.484,11.311Zm5.547-7.356a1.018,1.018,0,1,1-1.018-1.017A1.019,1.019,0,0,1,14.031,3.955Z"/></svg>