<svg xmlns="http://www.w3.org/2000/svg" xmlns:xlink="http://www.w3.org/1999/xlink" viewBox="0 0 211.73 215.93"><defs><style>.cls-1{fill:url(#linear-gradient);}.cls-2{fill:url(#linear-gradient-2);}.cls-3{fill:url(#linear-gradient-3);}.cls-4{fill:url(#linear-gradient-4);}.cls-5{fill:url(#linear-gradient-5);}.cls-6{fill:#fff;}</style><linearGradient id="linear-gradient" x1="110.33" y1="61.69" x2="142.33" y2="29.69" gradientUnits="userSpaceOnUse"><stop offset="0" stop-color="#462623"/><stop offset="0.11" stop-color="#cb9b50"/><stop offset="0.45" stop-color="#f5e27a"/><stop offset="0.5" stop-color="#f5f2c0"/><stop offset="0.55" stop-color="#f5e27a"/><stop offset="0.9" stop-color="#cb9b50"/><stop offset="1" stop-color="#462623"/></linearGradient><linearGradient id="linear-gradient-2" x1="23.71" y1="183.1" x2="23.81" y2="183" xlink:href="#linear-gradient"/><linearGradient id="linear-gradient-3" x1="126.41" y1="5.43" x2="126.69" y2="5.15" xlink:href="#linear-gradient"/><linearGradient id="linear-gradient-4" x1="-11.48" y1="192.83" x2="149.82" y2="31.53" gradientUnits="userSpaceOnUse"><stop offset="0.11" stop-color="#cb9b50"/><stop offset="0.45" stop-color="#f5e27a"/><stop offset="0.5" stop-color="#f5f2c0"/><stop offset="0.55" stop-color="#f5e27a"/><stop offset="0.9" stop-color="#cb9b50"/><stop offset="0.95" stop-color="#c9994f"/><stop offset="0.96" stop-color="#c2934d"/><stop offset="0.97" stop-color="#b78949"/><stop offset="0.98" stop-color="#a67a43"/><stop offset="0.99" stop-color="#90673c"/><stop offset="0.99" stop-color="#744f33"/><stop offset="1" stop-color="#553328"/><stop offset="1" stop-color="#462623"/></linearGradient><linearGradient id="linear-gradient-5" x1="211.73" y1="83.61" x2="95.87" y2="83.61" gradientUnits="userSpaceOnUse"><stop offset="0.21" stop-color="#cb9b50"/><stop offset="0.45" stop-color="#f5e27a"/><stop offset="0.5" stop-color="#f5f2c0"/><stop offset="0.55" stop-color="#f5e27a"/><stop offset="0.91" stop-color="#cb9b50"/></linearGradient></defs><g id="Layer_2" data-name="Layer 2"><g id="Layer_1-2" data-name="Layer 1"><path class="cls-1" d="M126.47,13.83c-.27,20.36-.28,41.26-.28,63.73"/><path class="cls-2" d="M23.73,183.1a.44.44,0,0,1,.08-.11Z"/><path class="cls-3" d="M126.59,5.43c0-.12,0-.25,0-.37-.06.13-.13.25-.19.37Z"/><path class="cls-4" d="M1.69,192.55c.27-4,1.51-7.81,3.9-12.4,4.19-7.21,11.52-13.06,18.16-19.54,7.26-7.08,14.57-14.12,21-22,.31-.39,5.11-6.48,5.47-6.83-.26.46-4.87,6.73-5.19,7.14-9.21,11.92-19.66,22.72-30,33.65-5.56,5.9-10.26,12.33-12.72,20.19a2.56,2.56,0,0,1-.49.67A4.18,4.18,0,0,1,1.69,192.55ZM6,204.85c-.08.72-.17,2.38-.36,2.08-.41-.58-.77-1.06-1.17-1.65-4.58-6.88-1.41-13.13,1.39-18.95,5.2-9.8,13.29-16.53,20.2-24.24C32.41,155,39,148.17,44.77,140.65c.4-.51,7-9.8,7.41-10.27-.29.58-6.61,10-7,10.57-6.52,9.37-13.63,18.28-20.82,27.14-8.06,9.94-15.87,20-18,33.16C6.19,202.43,6.16,203.65,6,204.85Zm45.1-69.76c-.41.75-.81,1.51-1.21,2.26-11.74,19.79-23.87,39.38-35.49,59.25-2.18,3.73-3.6,7.9-5.39,11.86-.2.46-.6,1.29-.74,1.25-.79-.18-.76-.94-.83-1.6-1-9.32,2.14-17.58,7-25.16,8.23-12.71,18.69-23.73,27.47-36,1.59-2.23,3.19-4.45,4.76-6.69l.06-.08a121.8,121.8,0,0,0,7.45-11.83,5.72,5.72,0,0,1,.78-.94,9.68,9.68,0,0,1-.41,1.18c-.82,1.55-1.65,3.09-2.48,4.64m1.72-1.43c1.17-1.41,2-2.39,1.92-2.27C43.67,152,34.3,175.9,21.93,198.28a75.11,75.11,0,0,1-8.8,12.82,1.67,1.67,0,0,1-2.46.47c-1-.57-.95-1.26-.71-2.26,1.58-6.7,5.59-12.25,8.41-18.15,11.3-18.82,22.51-37.47,33.69-56.13M13.79,213c-.74-.85.8-1.64,1.34-2.4,8.58-12.11,14.78-25.5,21-38.86,4.07-8.7,8-17.51,12.11-26.19,1.94-3.62,3.87-7.24,5.82-10.86.11-.21.29-.58.42-.58a1.33,1.33,0,0,1-.17.63C45.93,153,41.49,172.64,34.07,191.25c-3.47,8.69-8.69,16.33-17.16,21.09C16,212.87,14.58,213.87,13.79,213Zm38.89-66.71c-3.45,12.61-5,25.56-7.17,38.42-1.89,11.42-5.45,21.92-17,27.43-.7.33-1.74.59-2.79,1-.28,0,.59-.68.74-.81,9.69-8.16,12.41-19.81,15.66-31.2q5-17.51,10.09-35c.15-.51,5.52-14.61,5.75-15.1C57.91,131.52,52.82,145.71,52.68,146.24Zm5.54-16.76c-9.13,18.91-13.29,39.39-19,59.38A90.08,90.08,0,0,1,34.5,201c-2.66,4.54-5.64,8.61-9.84,11.64a5.9,5.9,0,0,1-1.36.89,11,11,0,0,1-5.51.31c.45-1.41,1.93-1.64,2.89-2.45,10.93-9.31,15.58-22.08,19.71-35.21,5-15.78,9.94-31.56,17.18-46.5a6.21,6.21,0,0,1,.81-1.06A3.13,3.13,0,0,1,58.22,129.48Zm12-39.13c-4.56,8.53-8.17,17.74-13.05,26.1a79,79,0,0,1-6.79,12.35C41.84,141,31.72,151.29,20.92,161.15a114.2,114.2,0,0,0-13.6,14.72c-.62.8-1.23,1.61-1.82,2.45A29.38,29.38,0,0,0,.1,197.66c.6,7.08,3.72,12.49,11.13,15.9,9.81,4.53,17.57,2.21,24.1-3.95a31,31,0,0,0,8.3-13.67c2.34-7.77,3.74-15.4,5.49-23.53,3.3-15.29,4.8-30.79,13.22-44.95,10.25-17.23,39.88-73.21,56.31-104.27,0-.79,0-1.58,0-2.37-16.36,30.59-47.38,88.35-57,106.49-.23.43-.29,1.44-1.2.74-.61-.48-1.37-.78-.72-2,10.08-18.7,43-79.78,58.9-109.38q-.06-5.13-.15-10.21h-.06c0-2.15-.06-4.31-.1-6.46h-.54a8.26,8.26,0,0,0-.7,1.11l-2.78,5.17"/><path class="cls-5" d="M163.64,79.47C190.67,74,203.09,57.4,203.09,39c0-23.46-16.3-39-52.36-39H118.29c0,2.17.06,4.35.1,6.53.07,4.48.15,9,.19,13.48,0,1.81,0,3.64,0,5.46,0,1,0,2.09,0,3.13.12,15.91.14,31.93.14,48V77L95.87,78.35v4.94h22.92v7.36c0,23.48,0,46.94-.4,70l-.1,6.52h36.28c38.53,0,57.16-19,57.16-44.21C211.73,100.18,197.38,82.43,163.64,79.47Zm-7,84h-30c-.37-22.75-.4-49.32-.4-80.95V77.56c0-22.47,0-43.37.28-63.73,0-1,0-2.08,0-3.11,0-1.77,0-3.53.08-5.29H148c35.81,0,48.16,14.08,48.16,32.85,0,23.47-18.52,39.28-52.11,39.28h-.25V82.5h3.46c40,0,57,14.82,57,40S187.46,163.45,156.59,163.45Z"/><path class="cls-6" d="M67.32,196.88v-.57a4,4,0,0,0,.87-.26,1,1,0,0,0,.43-.39,1.46,1.46,0,0,0,.14-.68,3.92,3.92,0,0,0-.1-.86,10.1,10.1,0,0,0-.27-1L68,191.57H62.5l-.4,1.15a12.33,12.33,0,0,0-.4,1.31,4.17,4.17,0,0,0-.09.81,1.33,1.33,0,0,0,.36,1,2,2,0,0,0,1.09.44v.57h-5v-.57a1.77,1.77,0,0,0,1.14-.76,8,8,0,0,0,.94-1.88l4.89-13h1.85l4,13.06a12.38,12.38,0,0,0,.49,1.4,2.18,2.18,0,0,0,.53.75,2,2,0,0,0,.83.4v.57Zm-4.5-6.33h4.89L65.49,183Z"/><path class="cls-6" d="M84.49,190.54c.28.47.52.88.71,1.23s.39.75.59,1.19h.15c0-.48-.07-1.43-.1-2.85s0-2.69,0-3.83v-2.47a10.78,10.78,0,0,0-.05-1.18,1.28,1.28,0,0,0-.17-.57.9.9,0,0,0-.34-.33,3.66,3.66,0,0,0-.75-.27v-.58H88.7v.58a3.42,3.42,0,0,0-.75.26,1.14,1.14,0,0,0-.35.3,1.34,1.34,0,0,0-.2.56,7.17,7.17,0,0,0-.07,1.23V197H85.86L79.33,186c-.4-.68-.69-1.18-.86-1.49a10.28,10.28,0,0,1-.48-.93h-.2c0,.6.09,1.69.11,3.27s0,3.14,0,4.7V194a10.15,10.15,0,0,0,0,1.15,1.74,1.74,0,0,0,.18.57,1,1,0,0,0,.36.36,3.83,3.83,0,0,0,.78.28v.57H75v-.57a2.55,2.55,0,0,0,1-.42,1.14,1.14,0,0,0,.32-.65A8.17,8.17,0,0,0,76.4,194V183.81a8.08,8.08,0,0,0-.06-1.17,1.36,1.36,0,0,0-.19-.58,1.15,1.15,0,0,0-.36-.33,3.81,3.81,0,0,0-.76-.27v-.58H78.7Z"/><path class="cls-6" d="M95.71,194a10.15,10.15,0,0,0,.05,1.15,1.74,1.74,0,0,0,.18.57,1,1,0,0,0,.36.36,3.83,3.83,0,0,0,.78.28v.57H92.14v-.57a2.56,2.56,0,0,0,1-.42,1.14,1.14,0,0,0,.32-.65,7.91,7.91,0,0,0,.08-1.29V183.81a8.08,8.08,0,0,0-.06-1.17,1.71,1.71,0,0,0-.19-.58,1.15,1.15,0,0,0-.36-.33,4.07,4.07,0,0,0-.76-.27v-.58h4.94v.58a3.17,3.17,0,0,0-.74.26A1,1,0,0,0,96,182a1.55,1.55,0,0,0-.2.58,8.6,8.6,0,0,0-.06,1.19Z"/><path class="cls-6" d="M111.32,180.88v3.54h-1.15a10.19,10.19,0,0,0-.49-1.29,2.88,2.88,0,0,0-.51-.75,1.46,1.46,0,0,0-.61-.36,3.43,3.43,0,0,0-.93-.1H104.2v6.37h2.41a1.63,1.63,0,0,0,.81-.17,1.22,1.22,0,0,0,.49-.57,5.59,5.59,0,0,0,.37-1.23h1.1v5h-1.1a5.89,5.89,0,0,0-.38-1.2,1.41,1.41,0,0,0-.47-.58,1.64,1.64,0,0,0-.82-.17H104.2v4.6a6.62,6.62,0,0,0,.08,1.12,1.59,1.59,0,0,0,.27.67,1.12,1.12,0,0,0,.5.37,6,6,0,0,0,.79.23v.57h-5.2v-.57a2.56,2.56,0,0,0,1-.42,1.14,1.14,0,0,0,.32-.65A7.91,7.91,0,0,0,102,194V183.81a8.08,8.08,0,0,0-.06-1.17,1.71,1.71,0,0,0-.19-.58,1.15,1.15,0,0,0-.36-.33,4.07,4.07,0,0,0-.76-.27v-.58Z"/><path class="cls-6" d="M120.51,196.88v-.57a4,4,0,0,0,.87-.26,1,1,0,0,0,.43-.39A1.46,1.46,0,0,0,122,195a3.92,3.92,0,0,0-.1-.86,10.1,10.1,0,0,0-.27-1l-.43-1.51h-5.46l-.4,1.15a12.33,12.33,0,0,0-.4,1.31,4.17,4.17,0,0,0-.09.81,1.33,1.33,0,0,0,.36,1,2,2,0,0,0,1.09.44v.57h-5v-.57a1.8,1.8,0,0,0,1.14-.76,8,8,0,0,0,.94-1.88l4.89-13h1.85l4,13.06a12.38,12.38,0,0,0,.49,1.4,2.18,2.18,0,0,0,.53.75,2,2,0,0,0,.83.4v.57Zm-4.5-6.33h4.89L118.68,183Z"/><path class="cls-6" d="M134.27,196.88v-.57a2.55,2.55,0,0,0,1-.42,1.14,1.14,0,0,0,.32-.65,8.17,8.17,0,0,0,.07-1.29V183.81a10.43,10.43,0,0,0,0-1.17,1.51,1.51,0,0,0-.2-.58,1.15,1.15,0,0,0-.36-.33,3.81,3.81,0,0,0-.76-.27v-.58h6.41a9.46,9.46,0,0,1,3,.4,3.05,3.05,0,0,1,2.23,3.19,3.63,3.63,0,0,1-1.42,3,7,7,0,0,1-1.63.92v.1a4.91,4.91,0,0,1,2.42,1.48,3.71,3.71,0,0,1,.82,2.39,4.44,4.44,0,0,1-.71,2.6,4,4,0,0,1-2,1.46,9.33,9.33,0,0,1-3.09.45Zm5.62-8.82a3.93,3.93,0,0,0,2.72-.86,3.23,3.23,0,0,0,.94-2.51,3,3,0,0,0-.26-1.34,2.24,2.24,0,0,0-.73-.85,3,3,0,0,0-1.09-.45,6.57,6.57,0,0,0-1.37-.13c-.3,0-.69,0-1.18,0l-1.08.05v6.07Zm-2,7.71c.57,0,1.2.08,1.91.08a5.86,5.86,0,0,0,2.38-.39,2.41,2.41,0,0,0,1.23-1.14,4.21,4.21,0,0,0,.38-1.89,3.9,3.9,0,0,0-.41-1.88,2.56,2.56,0,0,0-1.29-1.1,6.39,6.39,0,0,0-2.39-.36h-1.81Z"/><path class="cls-6" d="M157.27,196.88v-.57a4,4,0,0,0,.87-.26.92.92,0,0,0,.43-.39,1.35,1.35,0,0,0,.14-.68,4.58,4.58,0,0,0-.09-.86,10.1,10.1,0,0,0-.27-1l-.43-1.51h-5.47l-.39,1.15a10.32,10.32,0,0,0-.4,1.31,3.57,3.57,0,0,0-.1.81,1.33,1.33,0,0,0,.36,1,2,2,0,0,0,1.1.44v.57h-5v-.57a1.82,1.82,0,0,0,1.15-.76,8.36,8.36,0,0,0,.94-1.88l4.89-13h1.85l4,13.06a12.06,12.06,0,0,0,.5,1.4,2.17,2.17,0,0,0,.52.75,2,2,0,0,0,.83.4v.57Zm-4.5-6.33h4.9L155.44,183Z"/><path class="cls-6" d="M168.58,188.12h.35a2.18,2.18,0,0,0,.82-.15,2.84,2.84,0,0,0,.83-.52A18.79,18.79,0,0,0,172,186c.75-.84,1.26-1.45,1.54-1.82a5,5,0,0,0,.69-1.13,1.73,1.73,0,0,0,.14-.65.85.85,0,0,0-.27-.69,1.41,1.41,0,0,0-.74-.26v-.58h5.11v.58a2.42,2.42,0,0,0-.74.29,3.52,3.52,0,0,0-.74.56c-.26.24-.63.63-1.12,1.18l-3.94,4.43,4.27,6.2a11,11,0,0,0,1.06,1.37,3.21,3.21,0,0,0,.74.58,2.35,2.35,0,0,0,.75.24v.57h-5.17v-.57a1.41,1.41,0,0,0,.63-.17.4.4,0,0,0,.2-.38,1.27,1.27,0,0,0-.13-.51,4.34,4.34,0,0,0-.43-.72l-2.73-4.07a7.07,7.07,0,0,0-.7-1,1.55,1.55,0,0,0-.48-.35,1.84,1.84,0,0,0-.69-.11h-.63V194a7.85,7.85,0,0,0,.06,1.15,1.54,1.54,0,0,0,.17.57,1.16,1.16,0,0,0,.37.36,3.83,3.83,0,0,0,.78.28v.57H165v-.57a2.55,2.55,0,0,0,1-.42,1.14,1.14,0,0,0,.32-.65,8.17,8.17,0,0,0,.07-1.29V183.81a8.08,8.08,0,0,0-.06-1.17,1.36,1.36,0,0,0-.19-.58,1.15,1.15,0,0,0-.36-.33,3.81,3.81,0,0,0-.76-.27v-.58H170v.58a3.12,3.12,0,0,0-.75.26,1,1,0,0,0-.36.32,1.39,1.39,0,0,0-.2.58,8.26,8.26,0,0,0-.07,1.19Z"/><path class="cls-6" d="M191.82,180.88v3.54h-1.15a9.31,9.31,0,0,0-.37-1,4.09,4.09,0,0,0-.38-.73,2,2,0,0,0-.44-.47,1.33,1.33,0,0,0-.57-.24,4.46,4.46,0,0,0-.79-.06h-3.7v6.14h2.51a1.83,1.83,0,0,0,.81-.15,1.16,1.16,0,0,0,.48-.5,4.18,4.18,0,0,0,.37-1.1h1.1v4.5h-1.1a4.42,4.42,0,0,0-.36-1.06,1.24,1.24,0,0,0-.47-.51,1.81,1.81,0,0,0-.83-.15h-2.51v6.76h3.65a3.43,3.43,0,0,0,.93-.1,1.46,1.46,0,0,0,.61-.34,2.23,2.23,0,0,0,.46-.63,5.16,5.16,0,0,0,.33-.8c.09-.28.22-.68.37-1.21h1.16l-.22,4.11H180.86v-.57a2.48,2.48,0,0,0,1-.42,1.09,1.09,0,0,0,.32-.65,7.91,7.91,0,0,0,.08-1.29V183.81a8.08,8.08,0,0,0-.06-1.17,1.52,1.52,0,0,0-.19-.58,1.15,1.15,0,0,0-.36-.33,4.07,4.07,0,0,0-.76-.27v-.58Z"/><path class="cls-6" d="M196.45,193.24a5.23,5.23,0,0,0,.63,1.63,2.5,2.5,0,0,0,1,.88,4,4,0,0,0,1.63.29,2.89,2.89,0,0,0,2.11-.72,2.76,2.76,0,0,0,.73-2.08,3.15,3.15,0,0,0-.31-1.48,3.42,3.42,0,0,0-1-1.13,14.12,14.12,0,0,0-2.11-1.23,11.29,11.29,0,0,1-2.17-1.33,4.44,4.44,0,0,1-1.19-1.41,3.59,3.59,0,0,1-.39-1.66,4.13,4.13,0,0,1,.61-2.28,4,4,0,0,1,1.81-1.5,6.67,6.67,0,0,1,2.72-.52,16.33,16.33,0,0,1,1.74.09,15.13,15.13,0,0,1,2.13.42v3.17h-1.16a5,5,0,0,0-.68-1.61,2.2,2.2,0,0,0-1-.8,3.82,3.82,0,0,0-1.43-.23,3.12,3.12,0,0,0-1.36.28,2.14,2.14,0,0,0-1,.85,2.56,2.56,0,0,0-.35,1.35,3,3,0,0,0,.3,1.41,3.4,3.4,0,0,0,.93,1.07,11.54,11.54,0,0,0,1.87,1.1,14.23,14.23,0,0,1,2.33,1.39,5,5,0,0,1,1.29,1.47,3.88,3.88,0,0,1,.46,1.93,5.12,5.12,0,0,1-.38,2.08,3.55,3.55,0,0,1-1.08,1.38,4.24,4.24,0,0,1-1.64.78,8.51,8.51,0,0,1-2.09.24,17.35,17.35,0,0,1-4.24-.62v-3.21Z"/></g></g></svg>