<svg xmlns="http://www.w3.org/2000/svg" xmlns:xlink="http://www.w3.org/1999/xlink" width="294.355" height="57.945" viewBox="0 0 294.355 57.945"><defs><style>.a{fill:none;}.b{clip-path:url(#a);}.c{fill:#bf9f64;stroke:#bf9f64;}</style><clipPath id="a"><rect class="a" width="294.355" height="57.945"/></clipPath></defs><g class="b"><g transform="translate(-120.477 -1830.994)"><path class="c" d="M19.972,28.917l10.489,6.331L27.678,23.316l9.267-8.028-12.2-1.035L19.972,3,15.2,14.253,3,15.288l9.267,8.028L9.483,35.248Z" transform="translate(132.799 1840.126)"/></g><g transform="translate(-64.477 -1830.994)"><path class="c" d="M19.972,28.917l10.489,6.331L27.678,23.316l9.267-8.028-12.2-1.035L19.972,3,15.2,14.253,3,15.288l9.267,8.028L9.483,35.248Z" transform="translate(132.799 1840.126)"/></g><g transform="translate(-8.477 -1830.994)"><path class="c" d="M19.972,28.917l10.489,6.331L27.678,23.316l9.267-8.028-12.2-1.035L19.972,3,15.2,14.253,3,15.288l9.267,8.028L9.483,35.248Z" transform="translate(132.799 1840.126)"/></g><g transform="translate(47.523 -1830.994)"><path class="c" d="M19.972,28.917l10.489,6.331L27.678,23.316l9.267-8.028-12.2-1.035L19.972,3,15.2,14.253,3,15.288l9.267,8.028L9.483,35.248Z" transform="translate(132.799 1840.126)"/></g><g transform="translate(103.523 -1830.994)"><path class="c" d="M19.972,28.917l10.489,6.331L27.678,23.316l9.267-8.028-12.2-1.035L19.972,3,15.2,14.253,3,15.288l9.267,8.028L9.483,35.248Z" transform="translate(132.799 1840.126)"/></g></g></svg>