<svg xmlns="http://www.w3.org/2000/svg" width="15.223" height="17.635" viewBox="0 0 15.223 17.635"><defs><style>.a{fill:#fff;}</style></defs><path class="a" d="M10.364.015C11.32,0,12.27.007,13.219,0A4.592,4.592,0,0,0,14.5,3.064a5.132,5.132,0,0,0,3.1,1.315V7.341a7.774,7.774,0,0,1-3.066-.713,9.006,9.006,0,0,1-1.183-.683c-.007,2.146.007,4.291-.015,6.429a5.636,5.636,0,0,1-.986,2.9,5.431,5.431,0,0,1-4.315,2.359,5.3,5.3,0,0,1-2.979-.757,5.544,5.544,0,0,1-2.665-4.2c-.015-.367-.022-.735-.007-1.095A5.526,5.526,0,0,1,4.26,7.936,5.41,5.41,0,0,1,8.75,6.672c.015,1.087-.029,2.175-.029,3.262a2.5,2.5,0,0,0-3.2,1.558,2.933,2.933,0,0,0-.1,1.183,2.489,2.489,0,0,0,2.555,2.109A2.45,2.45,0,0,0,10,13.6a1.7,1.7,0,0,0,.3-.779c.073-1.315.044-2.623.051-3.938.007-2.961-.007-5.915.015-8.869Z" transform="translate(-2.369)"/></svg>